<?xml version="1.0" encoding="iso-8859-1"?>
<!-- Generator: Adobe Illustrator 19.0.0, SVG Export Plug-In . SVG Version: 6.00 Build 0)  -->
<svg version="1.1" id="Layer_1" xmlns="http://www.w3.org/2000/svg" xmlns:xlink="http://www.w3.org/1999/xlink" x="0px" y="0px"
	 viewBox="0 0 511.986 511.986" style="enable-background:new 0 0 511.986 511.986;" xml:space="preserve">
<path style="fill:#5D9CEC;" d="M394.643,202.651c0,106.043-85.95,191.994-191.985,191.994
	c-106.036,0-191.994-85.951-191.994-191.994c0-106.028,85.958-191.994,191.994-191.994
	C308.693,10.658,394.643,96.623,394.643,202.651z"/>
<path style="fill:#4A89DC;" d="M345.957,59.343c-38.279-38.264-89.16-59.342-143.299-59.342
	c-54.132,0-105.021,21.078-143.301,59.342C21.078,97.623,0,148.528,0,202.651C0,256.79,21.078,307.678,59.357,345.96
	c38.28,38.279,89.169,59.355,143.301,59.355c54.139,0,105.02-21.076,143.299-59.355c38.281-38.281,59.357-89.169,59.357-143.309
	C405.314,148.528,384.238,97.623,345.957,59.343z M246.195,378.739c-10.695,2.625-21.687,4.281-32.866,4.922v-69.295h60.803
	c-1.844,5.547-3.68,10.719-5.461,15.469C259.492,354.177,250.219,371.614,246.195,378.739z M136.652,329.835
	c-1.781-4.75-3.625-9.922-5.461-15.469h60.803v69.295c-11.18-0.641-22.171-2.297-32.866-4.922
	C155.104,371.614,145.831,354.177,136.652,329.835z M21.672,213.588H91.13c0.977,29.077,5.688,56.139,11.625,79.45H45.389
	C31.483,268.931,23.343,241.868,21.672,213.588z M159.128,26.563c10.695-2.625,21.687-4.281,32.866-4.921v69.56h-60.889
	c1.867-5.641,3.734-10.906,5.547-15.718C145.831,51.14,155.104,33.703,159.128,26.563z M268.671,75.483
	c1.812,4.812,3.68,10.078,5.539,15.718h-60.881v-69.56c11.18,0.64,22.171,2.296,32.858,4.921
	C250.219,33.703,259.492,51.14,268.671,75.483z M280.585,112.529c6.187,23.046,11.28,50.311,12.28,79.716h-79.536v-79.716
	C213.329,112.529,280.585,112.529,280.585,112.529z M191.994,112.529v79.716h-79.536c1-29.405,6.077-56.67,12.272-79.716
	C124.73,112.529,191.994,112.529,191.994,112.529z M91.114,192.245H21.64c1.593-28.374,9.694-55.53,23.593-79.716h57.451
	C96.747,135.919,92.036,163.075,91.114,192.245z M112.481,213.588h79.513v79.45h-67.193
	C118.613,270.087,113.528,242.9,112.481,213.588z M213.329,293.038v-79.45h79.505c-1.047,29.312-6.125,56.499-12.312,79.45H213.329z
	 M314.193,213.588h69.451c-1.672,28.28-9.812,55.342-23.719,79.45h-57.357C308.506,269.727,313.209,242.665,314.193,213.588z
	 M314.209,192.245c-0.922-29.171-5.641-56.327-11.578-79.716h57.451c13.906,24.187,22,51.342,23.594,79.716H314.209z
	 M345.722,91.201h-49.107c-2.734-8.734-5.516-16.718-8.203-23.796c-4.578-12.109-9.155-22.546-13.171-31.015
	c20.499,8.953,39.343,21.749,55.639,38.046C336.208,79.764,341.145,85.358,345.722,91.201z M130.074,36.391
	c-4.016,8.468-8.594,18.905-13.18,31.015c-2.672,7.078-5.468,15.062-8.187,23.796H59.599c4.562-5.844,9.516-11.437,14.844-16.765
	C90.731,58.14,109.583,45.344,130.074,36.391z M59.803,314.366h48.991c2.688,8.641,5.452,16.531,8.101,23.531
	c4.594,12.123,9.164,22.561,13.18,31.014c-20.491-8.953-39.343-21.748-55.631-38.045C69.201,325.632,64.318,320.116,59.803,314.366z
	 M275.241,368.911c4.016-8.453,8.593-18.891,13.171-31.014c2.656-7,5.422-14.891,8.109-23.531h48.982
	c-4.499,5.75-9.39,11.266-14.624,16.5C314.584,347.163,295.74,359.958,275.241,368.911z"/>
<path style="fill:#656D78;" d="M490.14,351.598c-0.484-1.422-1.25-2.719-2.25-3.826l-21.047-22.984
	c-2.016-2.219-4.874-3.469-7.858-3.469h-24.187c-2.359,0-4.656,0.781-6.516,2.219l-9.219,7.109H305.381l-9.203-7.109
	c-1.875-1.438-4.172-2.219-6.516-2.219h-24.193c-2.992,0-5.852,1.25-7.867,3.469l-21.031,22.984
	c-1.016,1.107-1.78,2.404-2.249,3.826c-24.648,74.076-28.406,121.48-11.492,144.934c7.289,10.109,18.132,15.453,31.351,15.453
	c11.483,0,27.732-5.734,39.936-32.984c3.344-7.453,5.625-14.857,7.078-20.357h122.059c1.453,5.5,3.734,12.904,7.078,20.357
	c12.203,27.25,28.452,32.984,39.936,32.984c13.234,0,24.062-5.344,31.359-15.453C518.53,473.079,514.78,425.675,490.14,351.598z"/>
<circle style="fill:#CCD1D9;" cx="319.133" cy="437.313" r="21.328"/>
<path style="fill:#AAB2BC;" d="M319.131,469.313c-17.641,0-32-14.357-32-31.998s14.359-32,32-32c17.64,0,31.998,14.359,31.998,32
	S336.77,469.313,319.131,469.313z M319.131,426.643c-5.875,0-10.672,4.781-10.672,10.672c0,5.875,4.797,10.672,10.672,10.672
	s10.671-4.797,10.671-10.672C329.802,431.425,325.006,426.643,319.131,426.643z"/>
<path style="fill:#CCD1D9;" d="M425.799,437.315c0,11.781-9.562,21.328-21.344,21.328c-11.78,0-21.326-9.547-21.326-21.328
	s9.546-21.328,21.326-21.328C416.236,415.987,425.799,425.534,425.799,437.315z"/>
<path style="fill:#AAB2BC;" d="M404.455,469.313c-17.639,0-31.998-14.357-31.998-31.998s14.359-32,31.998-32
	c17.656,0,32,14.359,32,32S422.111,469.313,404.455,469.313z M404.455,426.643c-5.874,0-10.655,4.781-10.655,10.672
	c0,5.875,4.781,10.672,10.655,10.672c5.891,0,10.672-4.797,10.672-10.672C415.127,431.425,410.346,426.643,404.455,426.643z"/>
<polygon style="fill:#434A54;" points="419.064,330.647 305.381,330.647 305.381,361.755 419.096,361.755 "/>
<g>
</g>
<g>
</g>
<g>
</g>
<g>
</g>
<g>
</g>
<g>
</g>
<g>
</g>
<g>
</g>
<g>
</g>
<g>
</g>
<g>
</g>
<g>
</g>
<g>
</g>
<g>
</g>
<g>
</g>
</svg>
